<svg fill="none" height="146" viewBox="0 0 446 146" width="446" xmlns="http://www.w3.org/2000/svg" xmlns:xlink="http://www.w3.org/1999/xlink"><clipPath id="a"><path d="m0 0h446v146h-446z"/></clipPath><g clip-path="url(#a)"><path d="m420.02 84.8281h6.61c1.03 0 1.83.1499 2.42.4299.59.29 1.06.7401 1.42 1.3401.36.61.54 1.27.54 1.98 0 .78-.19 1.45-.55 1.99-.37.55-.87.9399-1.51 1.1899.66.25 1.13.6501 1.41 1.2001.19.36.28 1.0099.28 1.9399v.9101c0 .77.05 1.2899.15 1.5599.07.18.21.3301.43.4401v.35h-3.07c-.21-.6-.31-1.2201-.31-1.8701v-1.25c0-.61-.07-1.0499-.21-1.3399-.14-.28-.35-.49-.61-.6-.27-.12-.71-.18-1.34-.18h-2.87v5.24h-2.78v-13.32zm2.78 2.3v3.57h3.15c.73 0 1.24-.1 1.54-.29.48-.31.72-.81.72-1.49s-.23-1.16-.69-1.47c-.31-.21-.81-.31-1.49-.31h-3.24z" fill="#000"/><path d="m425.29 104.729c-7.25 0-13.14-5.8898-13.14-13.1398s5.89-13.14 13.14-13.14 13.14 5.89 13.14 13.14-5.89 13.1398-13.14 13.1398zm0-23.1899c-5.54 0-10.05 4.5101-10.05 10.0501s4.51 10.0498 10.05 10.0498 10.05-4.5098 10.05-10.0498-4.51-10.0501-10.05-10.0501z" fill="#000"/><path d="m445.8 18.5399-83.44 9.07-.75 2.75-38.74 1.5-36.71 9.18c-3.66-1.64-7.96-3.04-13.02-4.1-4.58-.97-9.7-1.45-15.22-1.45-12.19 0-23.35 2.38-27.07 3.26l-2.72-11.44-31.84 4.82-6.08 10.87 3.07-20.29-41.18 6.46-3.03 25.47-13.48-23.35-24.09 5.12 11.63-36.3200562-50.5799 13.6000562-1.78 7.99c-5.1-2.51-11.25-4.23-18.36-4.23-1.15 0-2.33.04-3.49.13-23.84 1.82-48.120012 19.2-48.610012 53.9-.220001 15.5 4.670012 28.7701 14.140012 38.3801 9.5 9.63 23.07 14.94 38.22 14.94 8.35 0 15.57-.97 21.81-2.98l36.1499 23.49 4.26-30.54 24.33-.55.09-.92 6.55 11.03 32.11-.53 1.02-6.73 11.79.36 7.57-14.32 7.27.25 3.9 16.86h20.39l.34 3.57 38.47-.79-1.6-15.53 23.44 14.07 10.28-5.28 32.23-2.29-7.05 17.37 44.47-6.63 3.81-10.17c1.99 1.12 4.19 1.93 6.56 2.37 1.27.23 2.56.35 3.84.35 10.23 0 18.99-7.31 20.84-17.3701.75-4.07.3-8.17-1.24-11.9l41.5-69.42zm-340.27 36.52-.21 1.57-.32.08.53-1.64z" fill="#000"/><g fill="#ffd500"><path d="m55.4701 79.5792-1.19 8.49 27.4-.12c-1.54 2.54-8.81 13.2498-21.43 13.2498-14.32 0-24.53-12.9898-25.32-31.9498s7.82-27.31 15.25-27.84c7.42-.53 17.24 9.0199 20.15 30.0999 11.8-4.38 20.95-7.9599 20.95-7.9599l15.2499-47.6-24.6599 6.63-4.24 19.09s-8.75-14.58-27.84-13.13c-19.09 1.46-38.05 15.12-38.45 43.09-.4 27.98 18.83 42.1598 41.37 42.1598 18.53 0 27.29-5.38 32.84-11.93l-1.55 12.99 18.1599 11.8 8.35-59.9298-55.0299 12.86z"/><path d="m399.1 33.5083-17.83 47.02 13.51 1.28 31.06-51.32z"/><path d="m386.54 86.01c-5.54-1.02-10.85 2.65-11.87 8.19s2.65 10.85 8.19 11.87 10.85-2.65 11.87-8.19-2.65-10.85-8.19-11.87z"/><path d="m117.78 46.3084-7.59 57.5396 19.02-.43 2.36-24.7196 20.5 34.4996 16.43-.28 11.67-77.0196-18.12 2.84-5.95 50.05-26.03-45.09z"/><path d="m203.27 42.1992-35.5 63.4998 16.5.5 23.17-43.8398 10.83 46.8398h18l-16.5-69.4998z"/><path d="m191.77 81.6994 25-.34-.66 11.34-28.67-1z"/><path d="m234.21 49.6992 6.03 62.8598 16.33-.33-6.7-65.0298z"/><path d="m232.37 49.7s21.27-5.63 38.5-2c19 4 24.14 12.97 24.67 20.67 1.33 19.33-45 19.33-45 19.33l-2-10.33s31.72 1.33 31-7.67c-1.17-14.5-33.33-10.33-33.33-10.33l-13.83-9.67z"/><path d="m249.21 83.8592 40.66 24.3998 12-9.0598-34.66-20z"/><path d="m296.87 49.6973 4.11 55.6597 16.62-13.8297-3.5-46.5z"/><path d="m351.07 85.2305-7.1 16.8695-42.93 3.16 5.03-15.5695z"/><path d="m333.94 41.9297s-6 24.67 5 34.67 40.33 9 52.33-41.67l-17.67 1.67s-5.83 28.1-18 30.27c-13.13 2.34-5-25.6-5-25.6l-16.67.67z"/><path d="m364.97 64.5977-21.5 53.0003 19-2.84 30-80.1603-11.5 3.5z"/></g></g></svg>